<?xml version="1.0" encoding="UTF-8" standalone="no"?>
<!DOCTYPE svg PUBLIC "-//W3C//DTD SVG 1.1//EN" "http://www.w3.org/Graphics/SVG/1.1/DTD/svg11.dtd">
<svg width="100%" height="100%" viewBox="0 0 3000 3000" version="1.1" xmlns="http://www.w3.org/2000/svg" xmlns:xlink="http://www.w3.org/1999/xlink" xml:space="preserve" xmlns:serif="http://www.serif.com/" style="fill-rule:evenodd;clip-rule:evenodd;stroke-linecap:round;stroke-linejoin:round;stroke-miterlimit:1.5;">
    <path d="M503.106,3035.071C862.287,2891.221 811.433,2585.499 874.938,2455.657C977.213,2246.544 974.42,2233.347 1025.476,2227.244C1289.09,2195.729 1387.65,2245.745 1434.252,2258.534C1573.116,2296.639 1646.558,2263.263 1710.899,2296.371C1701.006,2550.592 1682.054,2554.749 1768.22,2794.343C1804.87,2896.255 1819.721,2886.155 1889.819,2969.851C1894.834,2975.839 1931.782,3019.956 1963.879,3033.47" style="fill:rgb(201,148,132);stroke:black;stroke-width:1px;"/>
    <path d="M883.693,462.465C685.513,1478.349 685.513,1689.762 685.513,1797.755C685.513,2018.583 663.133,2038.614 821.556,2197.998C951.503,2328.733 984.516,2270.324 1205.124,2342.37C1313.877,2377.887 1591.146,2367.051 1733.54,2367.051C1880.357,2367.051 1951.117,2025.794 1999.018,1854.134C2016.925,1789.962 2072.08,1592.304 2073.589,1024.675C2074.489,685.768 2121.485,669.843 2104.165,406.288C1827.61,443.613 1826.179,393.967 1203.71,448.838C898.578,475.736 898.871,459.896 872.894,465.122" style="fill:rgb(201,148,132);stroke:black;stroke-width:1px;"/>
    <path d="M2077.711,1125.17C2146.031,1129.56 2147.881,1135.941 2175.31,1190.271C2290.601,1418.635 2215.844,1443.044 2055.959,1515.79" style="fill:rgb(201,148,132);stroke:black;stroke-width:1px;"/>
    <path d="M779.348,1020.996C678.825,1019.605 574.156,983.874 603.533,1218.767C617.441,1329.977 638.23,1322.698 736.953,1377.515" style="fill:rgb(201,148,132);stroke:black;stroke-width:1px;"/>
    <path d="M944.756,544.36C947.531,478.067 951.698,480.182 969.641,417.566"/>
    <clipPath id="_clip1">
        <path d="M944.756,544.36C947.531,478.067 951.698,480.182 969.641,417.566"/>
    </clipPath>
    <g clip-path="url(#_clip1)">
        <path d="M346.878,3019.571C608.764,2888.969 632.698,2919.446 693.28,2823.674C719.272,2782.584 915.828,2261.713 966.848,2217.314C1003.64,2185.296 1452.282,2144.831 1626.556,2278.769C1658.255,2303.131 1692.227,2297.734 1745.704,2303.816C1741.252,2413.313 1743.321,2464.726 1695.352,2572.589C1677.889,2611.857 1782.675,2709.583 1817.871,2797.954C1859.867,2903.398 1965.632,3003.719 2014.399,3088.316" style="fill:rgb(235,235,235);stroke:black;stroke-width:1px;"/>
    </g>
    <path d="M944.756,544.36C947.531,478.067 951.698,480.182 969.641,417.566" style="fill:none;stroke:black;stroke-width:1px;"/>
    <path d="M1063.289,531.858C1064.999,474.585 1060.588,475.575 1073.424,418.502" style="stroke:black;stroke-width:1px;"/>
    <path d="M1216.604,513.343L1216.604,413.052" style="fill:none;stroke:black;stroke-width:1px;"/>
    <path d="M1349.07,526.373C1349.07,440.286 1345.721,442.113 1356.718,356.144" style="stroke:black;stroke-width:1px;"/>
    <path d="M1453.227,494.249C1457.988,409.186 1456.345,409.319 1460.909,396.649" style="stroke:black;stroke-width:1px;"/>
    <path d="M1574.792,479.651C1577.16,448.39 1579.527,417.128 1581.895,385.867" style="stroke:black;stroke-width:1px;"/>
    <path d="M1680.619,478.544C1682.188,428.554 1684.584,430.336 1698.469,383.431" style="stroke:black;stroke-width:1px;"/>
    <path d="M1753.639,484.046C1761.252,431.295 1760.843,432.653 1773.193,379.36" style="stroke:black;stroke-width:1px;"/>
    <path d="M1851,475.546C1850.021,425.06 1855.363,427.203 1860.965,377.436" style="stroke:black;stroke-width:1px;"/>
    <path d="M1926.372,478.697C1927.202,423.942 1925.07,424.969 1934.122,371.713" style="stroke:black;stroke-width:1px;"/>
    <path d="M1986.703,479.753C1988.406,451.422 1990.109,423.09 1991.813,394.758" style="stroke:black;stroke-width:1px;"/>
    <path d="M2049.436,485.204C2051.466,437.977 2045.783,438.888 2055.857,393.515" style="stroke:black;stroke-width:1px;"/>
    <path d="M1010.844,525.232C1013.9,470.384 1014.218,472.333 1019.531,419.593" style="stroke:black;stroke-width:1px;"/>
    <path d="M1172.914,510.396C1172.204,482.575 1171.495,454.754 1170.785,426.934" style="stroke:black;stroke-width:1px;"/>
    <path d="M1301.411,511.622L1301.411,399.613" style="fill:none;stroke:black;stroke-width:1px;"/>
    <path d="M1418.803,502.22C1418.451,467.688 1418.099,433.157 1417.747,398.625" style="stroke:black;stroke-width:1px;"/>
    <path d="M1531.92,483.926C1533.862,454.113 1535.804,424.299 1537.745,394.486" style="stroke:black;stroke-width:1px;"/>
    <path d="M896.74,529.541C898.572,494.04 882.16,491.953 919.053,407.397" style="stroke:black;stroke-width:1px;"/>
    <path d="M956.713,1901.214C1205.249,2056.604 1192.26,2095.187 1334.03,2099.189C1364.172,2100.04 1545.217,2105.151 1685.252,1962.38" style="fill:rgb(201,148,132);stroke:black;stroke-width:1px;"/>
    <path d="M1443.808,1153.82C1448.987,1193.91 1691.562,1576.925 1694.333,1581.232C1390.07,1590.217 1366.893,1596.431 1339.412,1603.8" style="fill:rgb(201,148,132);stroke:black;stroke-width:1px;"/>
    <path d="M929.511,1173.255C1061.698,1173.255 1060.404,1165.628 1191.378,1177.019" style="fill:rgb(201,148,132);stroke:black;stroke-width:1px;"/>
    <path d="M1738.718,1220.283C1755.577,1220.283 1904.819,1220.283 1949.366,1214.253" style="fill:rgb(201,148,132);stroke:black;stroke-width:1px;"/>
</svg>
